<?xml version="1.0" encoding="UTF-8" standalone="no"?>
<!DOCTYPE svg PUBLIC "-//W3C//DTD SVG 1.1//EN"
 "http://www.w3.org/Graphics/SVG/1.1/DTD/svg11.dtd">
<!-- Generated by graphviz version 2.40.1 (20161225.0304)
 -->
<!-- Title: dependencies Pages: 1 -->
<svg width="1098pt" height="211pt"
 viewBox="0.00 0.00 1098.00 211.00" xmlns="http://www.w3.org/2000/svg" xmlns:xlink="http://www.w3.org/1999/xlink">
<g id="graph0" class="graph" transform="scale(1 1) rotate(0) translate(4 207)">
<title>dependencies</title>
<polygon fill="#ffffff" stroke="transparent" points="-4,4 -4,-207 1094,-207 1094,4 -4,4"/>
<text text-anchor="start" x="524.0091" y="-42.4" font-family="sans-serif" font-weight="bold" font-size="14.00" fill="#000000">Legend</text>
<polygon fill="#ffffb3" stroke="transparent" points="311,-10 311,-30 331,-30 331,-10 311,-10"/>
<text text-anchor="start" x="334.629" y="-15.4" font-family="sans-serif" font-size="14.00" fill="#000000"> &#160;Declarations</text>
<polygon fill="#8dd3c7" stroke="transparent" points="424,-10 424,-30 444,-30 444,-10 424,-10"/>
<text text-anchor="start" x="447.7251" y="-15.4" font-family="sans-serif" font-size="14.00" fill="#000000"> &#160;Module</text>
<polygon fill="#80b1d3" stroke="transparent" points="510,-10 510,-30 530,-30 530,-10 510,-10"/>
<text text-anchor="start" x="533.7812" y="-15.4" font-family="sans-serif" font-size="14.00" fill="#000000"> &#160;Bootstrap</text>
<polygon fill="#fdb462" stroke="transparent" points="607,-10 607,-30 627,-30 627,-10 607,-10"/>
<text text-anchor="start" x="630.6732" y="-15.4" font-family="sans-serif" font-size="14.00" fill="#000000"> &#160;Providers</text>
<polygon fill="#fb8072" stroke="transparent" points="703,-10 703,-30 723,-30 723,-10 703,-10"/>
<text text-anchor="start" x="726.7258" y="-15.4" font-family="sans-serif" font-size="14.00" fill="#000000"> &#160;Exports</text>
<g id="clust1" class="cluster">
<title>cluster_ClientsModule</title>
<polygon fill="none" stroke="#000000" stroke-dasharray="1,5" points="8,-70 8,-195 1082,-195 1082,-70 8,-70"/>
</g>
<g id="clust2" class="cluster">
<title>cluster_ClientsModule_declarations</title>
<polygon fill="none" stroke="#000000" points="430,-78 430,-130 1074,-130 1074,-78 430,-78"/>
</g>
<g id="clust7" class="cluster">
<title>cluster_ClientsModule_imports</title>
<polygon fill="none" stroke="#000000" points="16,-78 16,-130 422,-130 422,-78 16,-78"/>
</g>
<!-- ClientComponent -->
<g id="node1" class="node">
<title>ClientComponent</title>
<polygon fill="#ffffb3" stroke="#000000" points="1065.5563,-122 950.4437,-122 950.4437,-86 1065.5563,-86 1065.5563,-122"/>
<text text-anchor="middle" x="1008" y="-99.8" font-family="Times,serif" font-size="14.00" fill="#000000">ClientComponent</text>
</g>
<!-- ClientsModule -->
<g id="node5" class="node">
<title>ClientsModule</title>
<polygon fill="#8dd3c7" stroke="#000000" points="561.7176,-187 558.7176,-191 537.7176,-191 534.7176,-187 462.2824,-187 462.2824,-151 561.7176,-151 561.7176,-187"/>
<text text-anchor="middle" x="512" y="-164.8" font-family="Times,serif" font-size="14.00" fill="#000000">ClientsModule</text>
</g>
<!-- ClientComponent&#45;&gt;ClientsModule -->
<g id="edge1" class="edge">
<title>ClientComponent&#45;&gt;ClientsModule</title>
<path fill="none" stroke="#000000" d="M1008,-122.2921C1008,-144.2057 1008,-178 1008,-178 1008,-178 571.8293,-178 571.8293,-178"/>
<polygon fill="#000000" stroke="#000000" points="571.8294,-174.5001 561.8293,-178 571.8293,-181.5001 571.8294,-174.5001"/>
</g>
<!-- ListClientsComponent -->
<g id="node2" class="node">
<title>ListClientsComponent</title>
<polygon fill="#ffffb3" stroke="#000000" points="932.2786,-122 789.7214,-122 789.7214,-86 932.2786,-86 932.2786,-122"/>
<text text-anchor="middle" x="861" y="-99.8" font-family="Times,serif" font-size="14.00" fill="#000000">ListClientsComponent</text>
</g>
<!-- ListClientsComponent&#45;&gt;ClientsModule -->
<g id="edge2" class="edge">
<title>ListClientsComponent&#45;&gt;ClientsModule</title>
<path fill="none" stroke="#000000" d="M861,-122.1061C861,-141.3391 861,-169 861,-169 861,-169 571.6326,-169 571.6326,-169"/>
<polygon fill="#000000" stroke="#000000" points="571.6326,-165.5001 561.6326,-169 571.6325,-172.5001 571.6326,-165.5001"/>
</g>
<!-- PageAddClientComponent -->
<g id="node3" class="node">
<title>PageAddClientComponent</title>
<polygon fill="#ffffb3" stroke="#000000" points="771.3738,-122 604.6262,-122 604.6262,-86 771.3738,-86 771.3738,-122"/>
<text text-anchor="middle" x="688" y="-99.8" font-family="Times,serif" font-size="14.00" fill="#000000">PageAddClientComponent</text>
</g>
<!-- PageAddClientComponent&#45;&gt;ClientsModule -->
<g id="edge3" class="edge">
<title>PageAddClientComponent&#45;&gt;ClientsModule</title>
<path fill="none" stroke="#000000" d="M688,-122.027C688,-138.3976 688,-160 688,-160 688,-160 571.9638,-160 571.9638,-160"/>
<polygon fill="#000000" stroke="#000000" points="571.9638,-156.5001 561.9638,-160 571.9637,-163.5001 571.9638,-156.5001"/>
</g>
<!-- PageClientsComponent -->
<g id="node4" class="node">
<title>PageClientsComponent</title>
<polygon fill="#ffffb3" stroke="#000000" points="586.212,-122 437.788,-122 437.788,-86 586.212,-86 586.212,-122"/>
<text text-anchor="middle" x="512" y="-99.8" font-family="Times,serif" font-size="14.00" fill="#000000">PageClientsComponent</text>
</g>
<!-- PageClientsComponent&#45;&gt;ClientsModule -->
<g id="edge4" class="edge">
<title>PageClientsComponent&#45;&gt;ClientsModule</title>
<path fill="none" stroke="#000000" d="M512,-122.1061C512,-122.1061 512,-140.991 512,-140.991"/>
<polygon fill="#000000" stroke="#000000" points="508.5001,-140.9909 512,-150.991 515.5001,-140.991 508.5001,-140.9909"/>
</g>
<!-- ClientsRoutingModule -->
<g id="node6" class="node">
<title>ClientsRoutingModule</title>
<polygon fill="#8dd3c7" stroke="#000000" points="414.3356,-122 411.3356,-126 390.3356,-126 387.3356,-122 269.6644,-122 269.6644,-86 414.3356,-86 414.3356,-122"/>
<text text-anchor="middle" x="342" y="-99.8" font-family="Times,serif" font-size="14.00" fill="#000000">ClientsRoutingModule</text>
</g>
<!-- ClientsRoutingModule&#45;&gt;ClientsModule -->
<g id="edge5" class="edge">
<title>ClientsRoutingModule&#45;&gt;ClientsModule</title>
<path fill="none" stroke="#000000" d="M342,-122.027C342,-138.3976 342,-160 342,-160 342,-160 452.372,-160 452.372,-160"/>
<polygon fill="#000000" stroke="#000000" points="452.372,-163.5001 462.372,-160 452.3719,-156.5001 452.372,-163.5001"/>
</g>
<!-- SharedModule -->
<g id="node7" class="node">
<title>SharedModule</title>
<polygon fill="#8dd3c7" stroke="#000000" points="252.4231,-122 249.4231,-126 228.4231,-126 225.4231,-122 153.5769,-122 153.5769,-86 252.4231,-86 252.4231,-122"/>
<text text-anchor="middle" x="203" y="-99.8" font-family="Times,serif" font-size="14.00" fill="#000000">SharedModule</text>
</g>
<!-- SharedModule&#45;&gt;ClientsModule -->
<g id="edge6" class="edge">
<title>SharedModule&#45;&gt;ClientsModule</title>
<path fill="none" stroke="#000000" d="M203,-122.1061C203,-141.3391 203,-169 203,-169 203,-169 452.3538,-169 452.3538,-169"/>
<polygon fill="#000000" stroke="#000000" points="452.3538,-172.5001 462.3538,-169 452.3538,-165.5001 452.3538,-172.5001"/>
</g>
<!-- TemplateModule -->
<g id="node8" class="node">
<title>TemplateModule</title>
<polygon fill="#8dd3c7" stroke="#000000" points="136.4188,-122 133.4188,-126 112.4188,-126 109.4188,-122 23.5812,-122 23.5812,-86 136.4188,-86 136.4188,-122"/>
<text text-anchor="middle" x="80" y="-99.8" font-family="Times,serif" font-size="14.00" fill="#000000">TemplateModule</text>
</g>
<!-- TemplateModule&#45;&gt;ClientsModule -->
<g id="edge7" class="edge">
<title>TemplateModule&#45;&gt;ClientsModule</title>
<path fill="none" stroke="#000000" d="M80,-122.2921C80,-144.2057 80,-178 80,-178 80,-178 452.0221,-178 452.0221,-178"/>
<polygon fill="#000000" stroke="#000000" points="452.0221,-181.5001 462.0221,-178 452.022,-174.5001 452.0221,-181.5001"/>
</g>
</g>
</svg>
